<svg xmlns="http://www.w3.org/2000/svg" style="cursor: move;" width="1440" height="689"><g transform="translate(20,-84) scale(1)"><path class="link" style="stroke-width: 0.5px; stroke-opacity: 1; stroke: rgb(80, 80, 80);" marker-end="url(#arrow)" d="M560,274.5, 740,314.5"></path><path class="link" style="stroke-width: 0.5px; stroke-opacity: 1; stroke: rgb(80, 80, 80);" marker-end="url(#arrow)" d="M560,274.5, 740,354.5"></path><path class="link" style="stroke-width: 0.5px; stroke-opacity: 1; stroke: rgb(80, 80, 80);" marker-end="url(#arrow)" d="M560,314.5, 740,314.5"></path><path class="link" style="stroke-width: 0.5px; stroke-opacity: 1; stroke: rgb(80, 80, 80);" marker-end="url(#arrow)" d="M560,314.5, 740,354.5"></path><path class="link" style="stroke-width: 0.5px; stroke-opacity: 1; stroke: rgb(80, 80, 80);" marker-end="url(#arrow)" d="M560,354.5, 740,314.5"></path><path class="link" style="stroke-width: 0.5px; stroke-opacity: 1; stroke: rgb(80, 80, 80);" marker-end="url(#arrow)" d="M560,354.5, 740,354.5"></path><path class="link" style="stroke-width: 0.5px; stroke-opacity: 1; stroke: rgb(80, 80, 80);" marker-end="url(#arrow)" d="M560,394.5, 740,314.5"></path><path class="link" style="stroke-width: 0.5px; stroke-opacity: 1; stroke: rgb(80, 80, 80);" marker-end="url(#arrow)" d="M560,394.5, 740,354.5"></path><path class="link" style="stroke-width: 0.5px; stroke-opacity: 1; stroke: rgb(80, 80, 80);" marker-end="url(#arrow)" d="M740,314.5, 920,274.5"></path><path class="link" style="stroke-width: 0.5px; stroke-opacity: 1; stroke: rgb(80, 80, 80);" marker-end="url(#arrow)" d="M740,314.5, 920,314.5"></path><path class="link" style="stroke-width: 0.5px; stroke-opacity: 1; stroke: rgb(80, 80, 80);" marker-end="url(#arrow)" d="M740,314.5, 920,354.5"></path><path class="link" style="stroke-width: 0.5px; stroke-opacity: 1; stroke: rgb(80, 80, 80);" marker-end="url(#arrow)" d="M740,314.5, 920,394.5"></path><path class="link" style="stroke-width: 0.5px; stroke-opacity: 1; stroke: rgb(80, 80, 80);" marker-end="url(#arrow)" d="M740,354.5, 920,274.5"></path><path class="link" style="stroke-width: 0.5px; stroke-opacity: 1; stroke: rgb(80, 80, 80);" marker-end="url(#arrow)" d="M740,354.5, 920,314.5"></path><path class="link" style="stroke-width: 0.5px; stroke-opacity: 1; stroke: rgb(80, 80, 80);" marker-end="url(#arrow)" d="M740,354.5, 920,354.5"></path><path class="link" style="stroke-width: 0.5px; stroke-opacity: 1; stroke: rgb(80, 80, 80);" marker-end="url(#arrow)" d="M740,354.5, 920,394.5"></path><circle r="10" class="node" id="0_0" style="fill: rgb(143, 240, 164); stroke: rgb(51, 51, 51);" cx="560" cy="274.5"></circle><circle r="10" class="node" id="0_1" style="fill: rgb(143, 240, 164); stroke: rgb(51, 51, 51);" cx="560" cy="314.5"></circle><circle r="10" class="node" id="0_2" style="fill: rgb(143, 240, 164); stroke: rgb(51, 51, 51);" cx="560" cy="354.5"></circle><circle r="10" class="node" id="0_3" style="fill: rgb(143, 240, 164); stroke: rgb(51, 51, 51);" cx="560" cy="394.5"></circle><circle r="10" class="node" id="1_0" style="fill: rgb(143, 240, 164); stroke: rgb(51, 51, 51);" cx="740" cy="314.5"></circle><circle r="10" class="node" id="1_1" style="fill: rgb(143, 240, 164); stroke: rgb(51, 51, 51);" cx="740" cy="354.5"></circle><circle r="10" class="node" id="2_0" style="fill: rgb(143, 240, 164); stroke: rgb(51, 51, 51);" cx="920" cy="274.5"></circle><circle r="10" class="node" id="2_1" style="fill: rgb(143, 240, 164); stroke: rgb(51, 51, 51);" cx="920" cy="314.5"></circle><circle r="10" class="node" id="2_2" style="fill: rgb(143, 240, 164); stroke: rgb(51, 51, 51);" cx="920" cy="354.5"></circle><circle r="10" class="node" id="2_3" style="fill: rgb(143, 240, 164); stroke: rgb(51, 51, 51);" cx="920" cy="394.5"></circle><text class="text" dy=".35em" style="font-size: 12px;" x="525" y="434.5">Input Layer ∈ ℝ⁴</text><text class="text" dy=".35em" style="font-size: 12px;" x="705" y="434.5">Hidden Layer ∈ ℝ²</text><text class="text" dy=".35em" style="font-size: 12px;" x="885" y="434.5">Output Layer ∈ ℝ⁴</text></g><defs><marker id="arrow" viewBox="0 -5 10 10" markerWidth="7" markerHeight="7" orient="auto" refX="40"><path d="M0,-5L10,0L0,5" style="stroke: rgb(80, 80, 80); fill: rgb(80, 80, 80);"></path></marker></defs></svg>